HIERARCHY
ROOT Hips
{
	OFFSET 0.00000 0.00000 0.00000
	CHANNELS 6 Xposition Yposition Zposition Zrotation Yrotation Xrotation 
	JOINT RightUpLegDummy
	{
		OFFSET 0 0 0
		CHANNELS 3 Zrotation Yrotation Xrotation
		JOINT RightUpLeg
		{
			OFFSET -3.52197 -3.41223 0.04002
			CHANNELS 3 Zrotation Yrotation Xrotation
			JOINT RightLeg
			{
				OFFSET 0.00006 -17.42390 1.60435
				CHANNELS 3 Zrotation Yrotation Xrotation
				JOINT RightFoot
				{
					OFFSET 0.06153 -16.50078 -1.63901
					CHANNELS 3 Zrotation Yrotation Xrotation
					JOINT RightToes
					{
						OFFSET 0.00298 -1.73825 3.34613
						CHANNELS 3 Zrotation Yrotation Xrotation
						End Site
						{
							OFFSET 0.00480 -0.05416 3.85043
						}
					}
				}
			}
		}
	}
	JOINT SpineDummy
	{
		OFFSET 0 0 0
		CHANNELS 3 Zrotation Yrotation Xrotation
		JOINT Spine
		{
			OFFSET 0.00000 4.68130 0.00000
			CHANNELS 3 Zrotation Yrotation Xrotation
			JOINT Spine1
			{
				OFFSET -0.00000 10.10138 0.05002
				CHANNELS 3 Zrotation Yrotation Xrotation
				JOINT HEadDummy
				{
					OFFSET 0 0 0
					CHANNELS 3 Zrotation Yrotation Xrotation
					JOINT Head
					{
						OFFSET -0.00000 3.43865 0.00438
						CHANNELS 3 Zrotation Yrotation Xrotation
						End Site
						{
							OFFSET -0.11417 5.02924 0.98962
						}
					}
				}
				JOINT LeftShoulder1Dummy
				{
					OFFSET 0 0 0
					CHANNELS 3 Zrotation Yrotation Xrotation
					JOINT LeftShoulder1
					{
						OFFSET 3.53937 -0.14262 -0.08662
						CHANNELS 3 Zrotation Yrotation Xrotation
						JOINT LeftArm
						{
							OFFSET 4.04833 -0.00133 0.12681
							CHANNELS 3 Zrotation Yrotation Xrotation
							JOINT LeftForeArm
							{
								OFFSET 10.33880 -0.01036 -0.55515
								CHANNELS 3 Zrotation Yrotation Xrotation
								JOINT LeftHand
								{
									OFFSET 8.69677 0.07543 0.40060
									CHANNELS 3 Zrotation Yrotation Xrotation
									End Site
									{
										OFFSET 5.28377 -0.21905 0.59205
									}
								}
							}
						}
					}
				}
				JOINT RightShoulderDummy
				{
					OFFSET 0 0 0
					CHANNELS 3 Zrotation Yrotation Xrotation
					JOINT RightShoulder
					{
						OFFSET -3.53937 -0.14262 -0.08660
						CHANNELS 3 Zrotation Yrotation Xrotation
						JOINT RightArm
						{
							OFFSET -4.04833 -0.00133 0.12683
							CHANNELS 3 Zrotation Yrotation Xrotation
							JOINT RightForeArm
							{
								OFFSET -10.37987 -0.01039 -0.55511
								CHANNELS 3 Zrotation Yrotation Xrotation
								JOINT RightHand
								{
									OFFSET -8.67398 0.07538 0.40058
									CHANNELS 3 Zrotation Yrotation Xrotation
									End Site
									{
										OFFSET -5.24810 -0.21916 0.59204
									}
								}
							}
						}
					}
				}
			}
		}
	}
	JOINT LeftUpLegDummy
	{
		OFFSET 0 0 0
		CHANNELS 3 Zrotation Yrotation Xrotation
		JOINT LeftUpLeg
		{
			OFFSET 3.52197 -3.41223 0.04002
			CHANNELS 3 Zrotation Yrotation Xrotation
			JOINT LeftLeg
			{
				OFFSET -0.00012 -17.42399 1.60337
				CHANNELS 3 Zrotation Yrotation Xrotation
				JOINT LeftFoot
				{
					OFFSET -0.09972 -16.50070 -1.63802
					CHANNELS 3 Zrotation Yrotation Xrotation
					JOINT LeftToes
					{
						OFFSET -0.01575 -1.73823 3.34611
						CHANNELS 3 Zrotation Yrotation Xrotation
						End Site
						{
							OFFSET 0.03150 -0.01868 3.85031
						}
					}
				}
			}
		}
	}
}
MOTION
Frames: 16
Frame Time: 0.033333
-0.6403 40.1655 -4.5053 -0.7596 -2.3211 -1.1359 0.0000 0.0000 0.0000 0.2275 -2.3446 2.5870 -2.5254 -11.6534 3.1667 0.3848 -0.0478 -3.7617 0.0000 -0.0000 0.0000 0.0000 0.0000 0.0000 0.1544 -0.3819 0.9593 2.6823 -0.9226 0.6635 -0.0000 0.0000 -0.0000 -1.1524 1.0205 6.9197 -0.0000 0.0000 -0.0000 -34.7539 -2.8010 2.5719 -44.0080 -16.4811 -16.7692 -10.9174 5.1561 47.0136 14.8194 -3.6033 -1.1210 -0.0000 0.0000 -0.0000 34.6968 5.1700 3.5316 39.8084 6.3304 -15.6577 11.0382 -0.9534 26.0208 -13.1050 3.5785 -0.9856 0.0000 0.0000 0.0000 3.5745 2.7458 1.5955 2.0546 8.3676 4.7703 -1.4376 0.1094 -3.9282 0.0000 0.0000 -0.0000
-0.6444 40.1655 -4.5053 -0.7553 -2.3578 -1.1359 0.0000 0.0000 0.0000 0.2275 -2.3525 2.5710 -2.5116 -11.6021 3.1827 0.3594 -0.0462 -3.7617 0.0000 -0.0000 0.0000 0.0000 0.0000 0.0000 0.1150 -0.3645 0.9261 2.6993 -0.9068 0.6904 -0.0000 0.0000 -0.0000 -1.0951 0.9892 6.9876 -0.0000 0.0000 -0.0000 -34.7564 -2.7916 2.5682 -43.9963 -16.4649 -16.7715 -10.9167 5.1567 46.8972 14.6845 -3.4690 -1.0944 -0.0000 0.0000 -0.0000 34.7197 5.1737 3.5351 39.7803 6.4220 -15.7960 11.0162 -1.1361 25.7086 -12.7020 3.4495 -0.9411 0.0000 0.0000 0.0000 3.5745 2.7513 1.5955 2.0631 8.4242 4.7819 -1.2766 0.0991 -3.9472 0.0000 0.0000 -0.0000
-0.6512 40.1655 -4.5053 -0.7479 -2.4162 -1.1359 0.0000 0.0000 0.0000 0.2222 -2.3605 2.5530 -2.4946 -11.5348 3.1987 0.3125 -0.0431 -3.7620 0.0000 -0.0000 0.0000 0.0000 0.0000 0.0000 0.0628 -0.3374 0.8769 2.7074 -0.8786 0.7172 -0.0000 0.0000 -0.0000 -1.0011 1.1230 7.1299 -0.0000 0.0000 -0.0000 -34.7191 -2.7723 2.5580 -44.0397 -16.4027 -16.8153 -10.9026 5.1610 46.7462 14.4565 -3.1990 -1.0450 -0.0000 0.0000 -0.0000 34.7875 5.1846 3.5455 39.7572 6.4763 -15.9625 10.9820 -1.2735 25.2738 -12.1218 3.1997 -0.8720 0.0000 0.0000 0.0000 3.5733 2.7631 1.5955 2.0721 8.5062 4.8014 -1.0635 0.0854 -3.9730 0.0000 0.0000 -0.0000
-0.6559 40.1655 -4.5053 -0.7344 -2.4703 -1.1359 0.0000 0.0000 0.0000 0.2038 -2.3784 2.5315 -2.4742 -11.4728 3.2228 0.2840 -0.0413 -3.7771 0.0000 -0.0000 0.0000 0.0000 0.0000 0.0000 0.0466 -0.3057 0.8438 2.6654 -0.8369 0.7126 -0.0000 0.0000 -0.0000 -0.9587 1.4415 7.3259 -0.0000 0.0000 -0.0000 -34.6429 -2.7624 2.5491 -44.1414 -16.3257 -16.9194 -10.8406 5.1613 46.7618 14.2947 -3.0524 -1.0159 -0.0000 0.0000 -0.0000 34.8700 5.1959 3.5574 39.7933 6.3859 -16.0130 10.9601 -1.1587 25.0213 -11.8915 3.0047 -0.8362 0.0000 0.0000 0.0000 3.5648 2.7635 1.5955 2.0794 8.5725 4.7996 -0.9950 0.0810 -3.9749 0.0000 0.0000 -0.0000
-0.6583 40.1655 -4.5053 -0.7208 -2.4905 -1.1359 0.0000 0.0000 0.0000 0.1843 -2.3958 2.5110 -2.4614 -11.4419 3.2522 0.2928 -0.0418 -3.8009 0.0000 -0.0000 0.0000 0.0000 0.0000 0.0000 0.0370 -0.2819 0.8218 2.6385 -0.8065 0.7057 -0.0000 0.0000 -0.0000 -0.9856 1.6838 7.5461 -0.0000 0.0000 -0.0000 -34.6250 -2.7748 2.5530 -44.2065 -16.2476 -17.0427 -10.7585 5.1576 46.9306 14.2494 -3.1330 -1.0219 -0.0000 0.0000 -0.0000 34.8878 5.1961 3.5591 39.8987 6.2476 -15.9579 10.9634 -0.9271 24.9122 -12.0023 2.9594 -0.8401 0.0000 0.0000 0.0000 3.5479 2.7476 1.5955 2.0912 8.6013 4.7836 -1.0274 0.0831 -3.9618 0.0000 0.0000 -0.0000
-0.6614 40.1655 -4.5069 -0.7215 -2.4618 -1.1372 0.0000 0.0000 0.0000 0.1936 -2.3882 2.5095 -2.4722 -11.4749 3.2611 0.3129 -0.0430 -3.8085 0.0000 -0.0000 0.0000 0.0000 0.0000 0.0000 0.0063 -0.2800 0.7940 2.6818 -0.8122 0.7379 -0.0000 0.0000 -0.0000 -1.0117 1.6836 7.7414 -0.0000 0.0000 -0.0000 -34.7037 -2.7871 2.5630 -44.2019 -16.1651 -17.1303 -10.6968 5.1538 47.0919 14.2593 -3.2401 -1.0350 -0.0000 0.0000 -0.0000 34.8191 5.1851 3.5485 40.0344 6.2001 -15.8928 10.9747 -0.8076 24.8802 -12.0921 2.9934 -0.8498 0.0000 0.0000 0.0000 3.5461 2.7326 1.5924 2.1048 8.5848 4.7737 -1.0482 0.0844 -3.9566 0.0000 0.0000 -0.0000
-0.6650 40.1655 -4.5101 -0.7351 -2.4258 -1.1509 0.0000 0.0000 0.0000 0.2194 -2.3727 2.5253 -2.4863 -11.5223 3.2629 0.3180 -0.0433 -3.8121 0.0000 -0.0000 0.0000 0.0000 0.0000 0.0000 0.0134 -0.2832 0.7870 2.6993 -0.8204 0.7815 -0.0000 0.0000 -0.0000 -0.9950 1.6115 7.8914 -0.0000 0.0000 -0.0000 -34.7561 -2.7765 2.5621 -44.2237 -16.1005 -17.1769 -10.6541 5.1512 47.2013 14.2624 -3.2127 -1.0321 -0.0000 0.0000 -0.0000 34.7550 5.1775 3.5396 40.1368 6.2371 -15.8569 10.9757 -0.8235 24.9824 -12.0190 2.9873 -0.8439 0.0000 0.0000 0.0000 3.5633 2.7313 1.6015 2.1113 8.5513 4.7635 -1.0668 0.0856 -3.9602 0.0000 0.0000 -0.0000
-0.6673 40.1655 -4.5163 -0.7408 -2.4333 -1.1793 0.0000 0.0000 0.0000 0.2155 -2.3914 2.5221 -2.4702 -11.4929 3.3196 0.3140 -0.0430 -3.8560 0.0000 -0.0000 0.0000 0.0000 0.0000 0.0000 0.0959 -0.2624 0.8471 2.6018 -0.7837 0.7725 -0.0000 0.0000 -0.0000 -0.9964 1.7219 8.0295 -0.0000 0.0000 -0.0000 -34.6865 -2.7649 2.5529 -44.3282 -16.0726 -17.1929 -10.6221 5.1483 47.3176 14.2744 -3.1775 -1.0289 -0.0000 0.0000 -0.0000 34.7775 5.1820 3.5445 40.1609 6.2772 -15.8194 10.9821 -0.8677 25.1471 -11.9577 2.9452 -0.8354 0.0000 0.0000 0.0000 3.5724 2.7330 1.6323 2.1148 8.5437 4.7527 -1.1094 0.0883 -3.9659 0.0000 0.0000 -0.0000
-0.6692 40.1636 -4.5269 -0.7299 -2.4568 -1.2015 0.0000 0.0000 0.0000 0.1813 -2.4356 2.4678 -2.4414 -11.4158 3.4507 0.2969 -0.0416 -3.9388 0.0000 -0.0000 0.0000 0.0000 0.0000 0.0000 0.1659 -0.2265 0.9552 2.5062 -0.7298 0.7106 -0.0000 0.0000 -0.0000 -1.0867 2.0383 8.1988 -0.0000 0.0000 -0.0000 -34.6082 -2.7795 2.5569 -44.4100 -16.0670 -17.1533 -10.6346 5.1459 47.3979 14.3426 -3.2671 -1.0444 -0.0000 0.0000 -0.0000 34.8307 5.1863 3.5501 40.1279 6.3237 -15.7950 11.0072 -0.9305 25.1496 -11.9937 2.9577 -0.8393 0.0000 0.0000 0.0000 3.5598 2.7244 1.6347 2.1273 8.5594 4.7734 -1.1203 0.0890 -3.9747 0.0000 0.0000 -0.0000
-0.6733 40.1611 -4.5388 -0.7244 -2.4288 -1.1980 0.0000 0.0000 0.0000 0.1711 -2.4542 2.3836 -2.4430 -11.4163 3.5921 0.2453 -0.0381 -4.0128 0.0000 -0.0000 0.0000 0.0000 0.0000 0.0000 0.1527 -0.2114 1.0468 2.5560 -0.7215 0.6401 -0.0000 0.0000 -0.0000 -1.2347 2.4516 8.4210 -0.0000 0.0000 -0.0000 -34.6519 -2.7918 2.5616 -44.3799 -16.0804 -17.0541 -10.7066 5.1462 47.3573 14.4543 -3.3466 -1.0622 -0.0000 0.0000 -0.0000 34.7991 5.1777 3.5437 40.1200 6.4011 -15.8333 11.0231 -1.0161 24.9733 -11.9796 2.9811 -0.8405 0.0000 0.0000 0.0000 3.5579 2.7184 1.5765 2.1403 8.5431 4.8306 -1.1034 0.0879 -3.9874 0.0000 0.0000 -0.0000
-0.6824 40.1569 -4.5442 -0.7507 -2.3610 -1.1887 0.0000 0.0000 0.0000 0.2181 -2.4304 2.3338 -2.4702 -11.5031 3.6848 0.1972 -0.0348 -4.0786 0.0000 -0.0000 0.0000 0.0000 0.0000 0.0000 0.1366 -0.2242 1.1277 2.6709 -0.7539 0.5470 -0.0000 0.0000 -0.0000 -1.3468 2.9414 8.7030 -0.0000 0.0000 -0.0000 -34.7284 -2.7653 2.5557 -44.3314 -16.0995 -16.9783 -10.7704 5.1479 47.2693 14.5210 -3.2622 -1.0573 -0.0000 0.0000 -0.0000 34.6780 5.1536 3.5232 40.1899 6.4249 -15.8731 11.0130 -0.9666 24.8245 -11.8037 2.8172 -0.8123 0.0000 0.0000 0.0000 3.6152 2.7540 1.5209 2.1190 8.4452 4.8884 -1.1417 0.0904 -4.0246 0.0000 0.0000 -0.0000
-0.7007 40.1506 -4.5395 -0.8121 -2.3234 -1.2059 0.0000 0.0000 0.0000 0.3182 -2.3755 2.3426 -2.5019 -11.5704 3.7609 0.2457 -0.0375 -4.1944 0.0000 -0.0000 0.0000 0.0000 0.0000 0.0000 0.1948 -0.2483 1.2653 2.7149 -0.7855 0.3836 -0.0000 0.0000 -0.0000 -1.3876 3.5116 9.0150 -0.0000 0.0000 -0.0000 -34.7000 -2.7336 2.5410 -44.3728 -16.0193 -17.0023 -10.7638 5.1484 47.2531 14.4870 -3.1340 -1.0397 -0.0000 0.0000 -0.0000 34.5649 5.1293 3.5034 40.3035 6.3170 -15.7827 11.0140 -0.6576 24.7830 -11.5520 2.4403 -0.7596 0.0000 0.0000 0.0000 3.7560 2.8664 1.5171 2.0397 8.2618 4.9676 -1.2066 0.0946 -4.1450 0.0000 0.0000 -0.0000
-0.7311 40.1414 -4.5310 -0.8953 -2.3253 -1.2308 0.0000 0.0000 0.0000 0.4700 -2.2774 2.3280 -2.5695 -11.6074 3.9233 0.3925 -0.0464 -4.3826 0.0000 -0.0000 0.0000 0.0000 0.0000 0.0000 0.2739 -0.2780 1.4477 2.7325 -0.8177 0.1963 -0.0000 0.0000 -0.0000 -1.4175 4.0707 9.2707 -0.0000 0.0000 -0.0000 -34.6411 -2.7481 2.5432 -44.4244 -15.7578 -17.0646 -10.7390 5.1494 47.2303 14.4122 -3.1476 -1.0357 -0.0000 0.0000 -0.0000 34.5261 5.1196 3.4961 40.3841 6.1717 -15.5977 11.0416 -0.2761 24.7958 -11.3648 2.1548 -0.7210 0.0000 0.0000 0.0000 3.9673 3.0487 1.4803 1.9278 8.0338 5.1674 -1.2078 0.0947 -4.3806 0.0000 0.0000 -0.0000
-0.7677 40.1271 -4.5276 -0.9789 -2.3386 -1.2212 0.0000 0.0000 0.0000 0.6470 -2.1472 2.1717 -2.6969 -11.6685 4.2772 0.5030 -0.0529 -4.6176 0.0000 -0.0000 0.0000 0.0000 0.0000 0.0000 0.3515 -0.2880 1.5805 2.7667 -0.8355 0.1126 -0.0000 0.0000 -0.0000 -1.5119 4.5516 9.4017 -0.0000 0.0000 -0.0000 -34.6744 -2.7816 2.5589 -44.3574 -15.4793 -17.0310 -10.7873 5.1538 47.0523 14.3652 -3.2370 -1.0426 -0.0000 0.0000 -0.0000 34.5738 5.1295 3.5043 40.3870 6.1221 -15.5086 11.0463 -0.0994 24.8874 -11.2764 2.1980 -0.7191 0.0000 0.0000 0.0000 4.1905 3.2395 1.3113 1.8475 7.8354 5.5493 -1.2237 0.0957 -4.6957 0.0000 0.0000 -0.0000
-0.8028 40.1052 -4.5268 -1.0186 -2.3920 -1.2065 0.0000 0.0000 0.0000 0.7552 -2.0722 1.8814 -2.8188 -11.6693 4.8548 0.4818 -0.0506 -4.9063 0.0000 -0.0000 0.0000 0.0000 0.0000 0.0000 0.5092 -0.2191 1.6649 2.6785 -0.7557 0.1707 -0.0000 0.0000 -0.0000 -1.6753 5.0017 9.4331 -0.0000 0.0000 -0.0000 -34.7125 -2.7743 2.5584 -44.1964 -15.4596 -16.8728 -10.9059 5.1597 46.7901 14.3060 -3.2400 -1.0385 -0.0000 0.0000 -0.0000 34.7111 5.1552 3.5268 40.3277 6.1179 -15.5336 11.0185 -0.0687 25.0242 -11.2308 2.3708 -0.7316 0.0000 0.0000 0.0000 4.3452 3.3811 1.0654 1.8344 7.7080 6.0967 -1.3876 0.1062 -5.0682 0.0000 0.0000 -0.0000
-0.8429 40.0772 -4.5176 -0.9611 -2.4895 -1.2747 0.0000 0.0000 0.0000 0.7190 -2.1256 1.6201 -2.8705 -11.5050 5.5642 0.3894 -0.0436 -5.2830 0.0000 -0.0000 0.0000 0.0000 0.0000 0.0000 0.7045 -0.0751 1.8520 2.4194 -0.5673 0.2501 -0.0000 0.0000 -0.0000 -1.8558 5.4349 9.4199 -0.0000 0.0000 -0.0000 -34.6396 -2.7363 2.5383 -44.0135 -15.6782 -16.7033 -11.0218 5.1624 46.6417 14.2207 -3.2162 -1.0293 -0.0000 0.0000 -0.0000 34.8836 5.1831 3.5534 40.2930 6.0389 -15.4472 11.0398 0.0779 24.9942 -11.2063 2.3595 -0.7289 0.0000 0.0000 0.0000 4.4128 3.5153 0.8684 1.8273 7.5644 6.7772 -1.6423 0.1167 -5.5151 0.0000 0.0000 -0.0000
